<svg width="14" height="14" viewBox="0 0 14 14" fill="none" xmlns="http://www.w3.org/2000/svg">
<g clip-path="url(#clip0_201_8911)">
<path d="M13.45 5.0269C13.0986 4.1952 12.5892 3.43957 11.95 2.8019C11.3123 2.16269 10.5567 1.65328 9.725 1.3019C8.86094 0.936275 7.94531 0.7519 7 0.7519C6.05469 0.7519 5.13906 0.936275 4.275 1.3019C3.4433 1.65328 2.68767 2.16269 2.05 2.8019C1.41079 3.43957 0.901382 4.1952 0.55 5.0269C0.184375 5.89096 0 6.80659 0 7.7519C0 9.82534 0.910937 11.7785 2.49844 13.1128L2.525 13.1347C2.61563 13.2097 2.72969 13.2519 2.84687 13.2519H11.1547C11.2719 13.2519 11.3859 13.2097 11.4766 13.1347L11.5031 13.1128C13.0891 11.7785 14 9.82534 14 7.7519C14 6.80659 13.8141 5.89096 13.45 5.0269ZM10.8969 12.0644H3.10313C2.49937 11.52 2.01683 10.8548 1.68681 10.1118C1.35679 9.36888 1.18667 8.56484 1.1875 7.7519C1.1875 6.19878 1.79219 4.7394 2.89062 3.64253C3.98906 2.54409 5.44844 1.9394 7 1.9394C8.55313 1.9394 10.0125 2.54409 11.1094 3.64253C12.2078 4.74096 12.8125 6.20034 12.8125 7.7519C12.8125 9.4019 12.1172 10.9628 10.8969 12.0644ZM8.74219 5.58784C8.71869 5.56457 8.68697 5.55153 8.65391 5.55153C8.62084 5.55153 8.58912 5.56457 8.56563 5.58784L7.24531 6.90815C6.95313 6.83003 6.62969 6.90503 6.4 7.13471C6.31865 7.21591 6.2541 7.31236 6.21007 7.41853C6.16603 7.5247 6.14336 7.63852 6.14336 7.75346C6.14336 7.86841 6.16603 7.98222 6.21007 8.08839C6.2541 8.19457 6.31865 8.29101 6.4 8.37221C6.4812 8.45357 6.57765 8.51811 6.68382 8.56215C6.78999 8.60618 6.90381 8.62885 7.01875 8.62885C7.13369 8.62885 7.24751 8.60618 7.35368 8.56215C7.45985 8.51811 7.5563 8.45357 7.6375 8.37221C7.74632 8.26372 7.82458 8.12842 7.86436 7.98C7.90414 7.83157 7.90404 7.67527 7.86406 7.5269L9.18437 6.20659C9.23281 6.15815 9.23281 6.07846 9.18437 6.03003L8.74219 5.58784V5.58784ZM6.65625 4.0019H7.34375C7.4125 4.0019 7.46875 3.94565 7.46875 3.8769V2.6269C7.46875 2.55815 7.4125 2.5019 7.34375 2.5019H6.65625C6.5875 2.5019 6.53125 2.55815 6.53125 2.6269V3.8769C6.53125 3.94565 6.5875 4.0019 6.65625 4.0019ZM10.7188 7.40815V8.09565C10.7188 8.1644 10.775 8.22065 10.8438 8.22065H12.0938C12.1625 8.22065 12.2188 8.1644 12.2188 8.09565V7.40815C12.2188 7.3394 12.1625 7.28315 12.0938 7.28315H10.8438C10.775 7.28315 10.7188 7.3394 10.7188 7.40815ZM10.9172 4.3269L10.4312 3.84096C10.4078 3.8177 10.376 3.80465 10.343 3.80465C10.3099 3.80465 10.2782 3.8177 10.2547 3.84096L9.37031 4.72534C9.34705 4.74883 9.334 4.78056 9.334 4.81362C9.334 4.84668 9.34705 4.87841 9.37031 4.9019L9.85625 5.38784C9.90469 5.43628 9.98437 5.43628 10.0328 5.38784L10.9172 4.50346C10.9656 4.45503 10.9656 4.37534 10.9172 4.3269ZM3.75156 3.84096C3.72807 3.8177 3.69634 3.80465 3.66328 3.80465C3.63022 3.80465 3.59849 3.8177 3.575 3.84096L3.08906 4.3269C3.0658 4.35039 3.05275 4.38212 3.05275 4.41518C3.05275 4.44824 3.0658 4.47997 3.08906 4.50346L3.97344 5.38784C4.02187 5.43628 4.10156 5.43628 4.15 5.38784L4.63594 4.9019C4.68438 4.85346 4.68438 4.77378 4.63594 4.72534L3.75156 3.84096ZM3.09375 7.28315H1.84375C1.775 7.28315 1.71875 7.3394 1.71875 7.40815V8.09565C1.71875 8.1644 1.775 8.22065 1.84375 8.22065H3.09375C3.1625 8.22065 3.21875 8.1644 3.21875 8.09565V7.40815C3.21875 7.3394 3.1625 7.28315 3.09375 7.28315Z" fill="#F5222D"/>
</g>
<defs>
<clipPath id="clip0_201_8911">
<rect width="14" height="14" fill="white"/>
</clipPath>
</defs>
</svg>
