<svg width="24" height="24" viewBox="0 0 24 24" fill="none" xmlns="http://www.w3.org/2000/svg">
<path d="M2 4.11111C2 3.49746 2.49746 3 3.11111 3H20.8889C21.5025 3 22 3.49746 22 4.11111C22 4.72476 21.5025 5.22222 20.8889 5.22222H3.11111C2.49746 5.22222 2 4.72476 2 4.11111ZM8.66667 11.8889C8.66667 11.2752 9.16413 10.7778 9.77778 10.7778H20.8889C21.5025 10.7778 22 11.2752 22 11.8889C22 12.5025 21.5025 13 20.8889 13H9.77778C9.16413 13 8.66667 12.5025 8.66667 11.8889ZM2 19.6667C2 19.053 2.49746 18.5556 3.11111 18.5556H20.8889C21.5025 18.5556 22 19.053 22 19.6667C22 20.2803 21.5025 20.7778 20.8889 20.7778H3.11111C2.49746 20.7778 2 20.2803 2 19.6667Z" fill="#2F3342"/>
</svg>
