<svg width="14" height="14" viewBox="0 0 14 14" fill="none" xmlns="http://www.w3.org/2000/svg">
<g clip-path="url(#clip0_201_8916)">
<path d="M13.5 1.49715H0.5C0.223437 1.49715 0 1.72059 0 1.99715V11.9972C0 12.2737 0.223437 12.4972 0.5 12.4972H13.5C13.7766 12.4972 14 12.2737 14 11.9972V1.99715C14 1.72059 13.7766 1.49715 13.5 1.49715ZM12.875 3.2284V11.3722H1.125V3.2284L0.69375 2.89246L1.30781 2.1034L1.97656 2.62372H12.025L12.6938 2.1034L13.3078 2.89246L12.875 3.2284ZM12.025 2.62215L7 6.5284L1.975 2.62215L1.30625 2.10184L0.692188 2.8909L1.12344 3.22684L6.46094 7.37684C6.61444 7.49609 6.80328 7.56083 6.99766 7.56083C7.19203 7.56083 7.38088 7.49609 7.53438 7.37684L12.875 3.2284L13.3062 2.89246L12.6922 2.1034L12.025 2.62215Z" fill="black" fill-opacity="0.85"/>
</g>
<defs>
<clipPath id="clip0_201_8916">
<rect width="14" height="14" fill="white"/>
</clipPath>
</defs>
</svg>
