<svg width="14" height="14" viewBox="0 0 14 14" fill="none" xmlns="http://www.w3.org/2000/svg">
<path d="M13.2505 2.00095H4.12549C4.05674 2.00095 4.00049 2.0572 4.00049 2.12595V3.00095C4.00049 3.0697 4.05674 3.12595 4.12549 3.12595H13.2505C13.3192 3.12595 13.3755 3.0697 13.3755 3.00095V2.12595C13.3755 2.0572 13.3192 2.00095 13.2505 2.00095ZM13.2505 6.43845H4.12549C4.05674 6.43845 4.00049 6.4947 4.00049 6.56345V7.43845C4.00049 7.5072 4.05674 7.56345 4.12549 7.56345H13.2505C13.3192 7.56345 13.3755 7.5072 13.3755 7.43845V6.56345C13.3755 6.4947 13.3192 6.43845 13.2505 6.43845ZM13.2505 10.8759H4.12549C4.05674 10.8759 4.00049 10.9322 4.00049 11.0009V11.8759C4.00049 11.9447 4.05674 12.0009 4.12549 12.0009H13.2505C13.3192 12.0009 13.3755 11.9447 13.3755 11.8759V11.0009C13.3755 10.9322 13.3192 10.8759 13.2505 10.8759ZM0.625488 2.56345C0.625488 2.67836 0.648121 2.79214 0.692094 2.8983C0.736067 3.00446 0.800519 3.10092 0.88177 3.18217C0.963021 3.26342 1.05948 3.32787 1.16564 3.37184C1.2718 3.41582 1.38558 3.43845 1.50049 3.43845C1.6154 3.43845 1.72918 3.41582 1.83534 3.37184C1.9415 3.32787 2.03796 3.26342 2.11921 3.18217C2.20046 3.10092 2.26491 3.00446 2.30888 2.8983C2.35286 2.79214 2.37549 2.67836 2.37549 2.56345C2.37549 2.44854 2.35286 2.33476 2.30888 2.2286C2.26491 2.12244 2.20046 2.02598 2.11921 1.94473C2.03796 1.86348 1.9415 1.79903 1.83534 1.75506C1.72918 1.71108 1.6154 1.68845 1.50049 1.68845C1.38558 1.68845 1.2718 1.71108 1.16564 1.75506C1.05948 1.79903 0.963021 1.86348 0.88177 1.94473C0.800519 2.02598 0.736067 2.12244 0.692094 2.2286C0.648121 2.33476 0.625488 2.44854 0.625488 2.56345V2.56345ZM0.625488 7.00095C0.625488 7.11586 0.648121 7.22964 0.692094 7.3358C0.736067 7.44196 0.800519 7.53842 0.88177 7.61967C0.963021 7.70092 1.05948 7.76537 1.16564 7.80934C1.2718 7.85332 1.38558 7.87595 1.50049 7.87595C1.6154 7.87595 1.72918 7.85332 1.83534 7.80934C1.9415 7.76537 2.03796 7.70092 2.11921 7.61967C2.20046 7.53842 2.26491 7.44196 2.30888 7.3358C2.35286 7.22964 2.37549 7.11586 2.37549 7.00095C2.37549 6.88604 2.35286 6.77226 2.30888 6.6661C2.26491 6.55994 2.20046 6.46348 2.11921 6.38223C2.03796 6.30098 1.9415 6.23653 1.83534 6.19256C1.72918 6.14858 1.6154 6.12595 1.50049 6.12595C1.38558 6.12595 1.2718 6.14858 1.16564 6.19256C1.05948 6.23653 0.963021 6.30098 0.88177 6.38223C0.800519 6.46348 0.736067 6.55994 0.692094 6.6661C0.648121 6.77226 0.625488 6.88604 0.625488 7.00095V7.00095ZM0.625488 11.4384C0.625488 11.5534 0.648121 11.6671 0.692094 11.7733C0.736067 11.8795 0.800519 11.9759 0.88177 12.0572C0.963021 12.1384 1.05948 12.2029 1.16564 12.2468C1.2718 12.2908 1.38558 12.3134 1.50049 12.3134C1.6154 12.3134 1.72918 12.2908 1.83534 12.2468C1.9415 12.2029 2.03796 12.1384 2.11921 12.0572C2.20046 11.9759 2.26491 11.8795 2.30888 11.7733C2.35286 11.6671 2.37549 11.5534 2.37549 11.4384C2.37549 11.3235 2.35286 11.2098 2.30888 11.1036C2.26491 10.9974 2.20046 10.901 2.11921 10.8197C2.03796 10.7385 1.9415 10.674 1.83534 10.6301C1.72918 10.5861 1.6154 10.5634 1.50049 10.5634C1.38558 10.5634 1.2718 10.5861 1.16564 10.6301C1.05948 10.674 0.963021 10.7385 0.88177 10.8197C0.800519 10.901 0.736067 10.9974 0.692094 11.1036C0.648121 11.2098 0.625488 11.3235 0.625488 11.4384V11.4384Z" fill="black" fill-opacity="0.85"/>
</svg>
